<?xml version="1.0" standalone="no"?>
<!DOCTYPE svg PUBLIC "-//W3C//DTD SVG 20010904//EN"
 "http://www.w3.org/TR/2001/REC-SVG-20010904/DTD/svg10.dtd">
<svg version="1.0" xmlns="http://www.w3.org/2000/svg"
 width="1728.000000pt" height="1728.000000pt" viewBox="0 0 1728.000000 1728.000000"
 preserveAspectRatio="xMidYMid meet">
<metadata>
Created by potrace 1.11, written by Peter Selinger 2001-2013
</metadata>
<g transform="translate(0.000000,1728.000000) scale(0.100000,-0.100000)"
fill="#000000" stroke="none">
<path d="M2020 13517 c-69 -34 -128 -66 -131 -70 -3 -5 -8 -8 -10 -8 -13 2
-49 -13 -49 -20 0 -5 -6 -9 -14 -9 -7 0 -46 -18 -86 -40 -40 -22 -77 -40 -82
-40 -6 0 -22 -8 -36 -18 -15 -10 -52 -29 -82 -42 -30 -14 -57 -27 -60 -31 -6
-6 -37 -19 -46 -18 -4 0 -10 -3 -13 -8 -3 -4 -172 -91 -376 -193 -203 -101
-387 -195 -407 -207 -21 -13 -38 -20 -38 -17 0 4 -6 2 -13 -4 -6 -5 -139 -73
-294 -152 l-283 -141 0 -1221 0 -1220 25 16 c14 9 25 14 25 12 0 -2 42 14 93
36 50 22 98 40 105 41 6 0 12 4 12 9 0 4 7 8 15 8 8 0 40 12 72 26 83 37 111
48 178 75 33 13 63 28 66 32 3 5 9 8 13 8 14 -2 35 6 124 45 29 13 55 24 57
24 4 0 200 82 252 106 17 8 34 14 37 14 3 0 35 14 71 30 36 17 69 30 73 30 4
0 30 11 57 25 28 13 57 25 65 25 9 0 24 6 35 13 11 8 70 33 130 57 61 24 121
50 135 57 14 7 31 13 38 13 9 0 12 -432 12 -2125 l0 -2125 2193 0 c1207 0
2196 3 2199 6 4 3 2 19 -2 35 -5 16 -6 29 -2 29 4 0 7 45 7 100 0 55 -4 100
-8 100 -5 0 -5 5 -2 11 4 5 6 38 6 72 -1 34 -1 71 -1 82 0 11 0 70 1 132 0 62
-2 117 -6 123 -3 5 -3 10 2 10 4 0 7 21 5 47 -2 27 -3 55 -3 63 2 60 3 107 1
115 -1 6 -2 12 -1 15 7 17 5 100 -2 100 -5 0 -5 5 -2 10 9 14 9 266 0 279 -3
6 -3 11 2 11 4 0 7 21 5 47 -2 27 -3 55 -3 63 2 60 3 107 1 115 -1 6 -2 12 -1
15 7 17 5 100 -2 100 -5 0 -5 5 -2 10 4 6 6 56 6 113 -1 121 -1 129 0 187 0
25 0 50 -1 55 -1 6 -1 15 0 20 1 6 1 28 1 50 -2 51 -2 40 1 232 2 90 -1 163
-5 163 -5 0 -5 5 -2 10 4 6 6 39 6 73 -1 34 -1 70 -2 80 0 9 1 56 2 105 l2 87
33 -70 c18 -38 33 -76 34 -82 0 -7 4 -13 9 -13 5 0 12 -10 16 -22 10 -32 8
-27 35 -83 13 -27 23 -53 22 -57 -1 -5 3 -8 8 -8 6 0 10 -9 10 -20 0 -11 4
-20 10 -20 5 0 9 -3 8 -7 -1 -5 14 -39 32 -78 18 -38 33 -73 32 -77 -1 -5 3
-8 8 -8 5 0 9 -3 8 -7 -1 -5 26 -66 60 -136 34 -71 62 -130 62 -131 0 -2 33
-73 74 -157 40 -85 84 -176 96 -204 13 -27 47 -101 76 -162 30 -62 54 -117 54
-123 0 -5 5 -10 10 -10 6 0 10 -6 10 -13 0 -7 10 -33 22 -58 12 -24 21 -47 20
-51 -1 -5 3 -8 9 -8 5 0 8 -4 4 -9 -3 -5 2 -16 10 -24 8 -9 15 -20 15 -25 0
-5 16 -42 36 -83 121 -250 204 -429 204 -439 0 -6 5 -10 10 -10 6 0 10 -6 10
-13 0 -7 10 -33 22 -58 12 -24 23 -49 24 -56 1 -7 12 -26 24 -43 12 -16 19
-30 15 -30 -3 0 7 -26 24 -57 34 -68 105 -216 106 -223 1 -3 16 -35 33 -71 18
-36 32 -71 32 -77 0 -7 5 -12 10 -12 6 0 10 -7 10 -15 0 -13 233 -15 2039 -15
l2039 0 11 29 c7 16 13 35 14 42 2 8 6 20 10 27 5 6 6 12 2 12 -3 0 -1 9 5 21
7 11 14 33 16 47 2 15 8 36 13 47 8 17 53 158 56 175 1 3 4 14 7 25 4 11 23
74 43 140 20 66 44 140 52 165 8 25 16 52 18 60 2 8 13 44 25 80 12 36 24 74
26 85 9 35 10 40 18 63 4 13 16 22 29 23 12 0 553 1 1202 1 l1179 1 13 -32 c8
-18 11 -36 8 -42 -4 -5 -2 -9 3 -9 5 0 13 -15 17 -32 10 -41 1 -12 70 -223 32
-99 60 -183 61 -187 1 -5 2 -9 4 -10 1 -2 3 -10 5 -18 3 -17 113 -357 122
-380 4 -8 7 -17 8 -20 1 -3 7 -24 15 -47 l13 -43 1184 0 1184 0 -7 23 c-3 12
-13 34 -21 50 -7 15 -11 27 -7 27 4 0 1 7 -6 15 -7 8 -9 15 -5 15 4 0 1 7 -6
16 -11 14 -31 60 -43 99 -2 6 -8 23 -15 40 -7 16 -60 149 -118 295 -58 146
-111 279 -118 295 -16 37 -59 148 -60 155 0 3 -7 21 -16 40 -9 19 -33 78 -54
130 -20 52 -40 104 -44 115 -5 11 -13 31 -18 45 -5 14 -19 45 -31 70 -12 25
-22 52 -22 61 0 8 -5 20 -11 26 -6 6 -12 19 -14 29 -2 11 -4 20 -5 22 -2 1 -3
5 -5 10 -5 18 -26 68 -35 84 -6 10 -10 25 -10 33 0 8 -5 15 -11 15 -5 0 -8 4
-5 8 2 4 -2 23 -11 42 -31 72 -41 97 -73 180 -18 47 -39 99 -46 115 -38 89
-61 154 -56 159 3 3 0 6 -6 6 -7 0 -12 7 -12 15 0 8 -4 23 -10 33 -5 9 -39 94
-76 187 -36 94 -72 184 -80 200 -15 34 -78 197 -79 205 0 3 -6 15 -13 26 -6
12 -8 24 -5 28 3 3 1 6 -5 6 -7 0 -12 6 -12 13 0 6 -13 44 -28 82 -32 78 -39
98 -40 105 0 3 -14 35 -31 73 -17 37 -28 67 -24 67 3 0 1 6 -5 13 -6 7 -20 39
-33 72 -12 33 -26 71 -32 85 -6 14 -10 28 -9 33 1 4 -3 7 -8 7 -6 0 -10 6 -10
13 0 7 -22 69 -50 137 -27 68 -50 129 -50 136 0 6 -7 17 -15 24 -8 7 -13 16
-10 20 3 4 -2 20 -9 36 -8 16 -62 148 -120 294 -57 146 -110 279 -117 295 -7
17 -13 32 -14 35 -1 3 -7 18 -13 33 -7 16 -12 31 -12 33 0 3 -8 24 -19 47 -10
23 -39 96 -66 162 -26 66 -51 129 -56 140 -8 19 -30 74 -34 85 -1 3 -7 19 -14
35 -14 32 -55 140 -73 190 -6 17 -15 34 -19 40 -5 5 -9 17 -9 27 0 10 -5 18
-12 18 -6 0 -8 3 -5 7 4 3 2 12 -4 20 -6 7 -9 13 -6 13 3 0 -3 21 -14 48 -11
26 -24 56 -29 67 -4 11 -15 36 -24 57 -9 20 -16 39 -16 43 0 7 -6 21 -44 107
-9 20 -16 41 -16 46 0 6 -6 23 -14 39 -22 44 -41 93 -45 118 -1 6 -8 19 -15
30 -7 11 -19 38 -26 60 -12 39 -32 86 -71 173 -10 23 -19 51 -19 62 0 10 -4
21 -9 24 -4 3 -16 27 -26 53 -19 51 -34 90 -55 138 -7 17 -14 35 -16 40 -1 6
-8 24 -15 40 -7 17 -12 33 -11 38 1 4 -2 7 -6 7 -5 0 -9 6 -9 13 -1 19 -37
112 -46 115 -4 2 -7 9 -7 15 0 7 -37 105 -82 219 l-83 208 -1086 0 -1087 0
-21 -52 c-11 -29 -26 -66 -32 -83 -7 -16 -13 -32 -14 -35 -1 -3 -6 -16 -12
-30 -6 -14 -10 -27 -9 -30 0 -3 -7 -18 -17 -33 -9 -15 -15 -27 -12 -27 3 0 -1
-13 -9 -29 -9 -16 -12 -31 -9 -35 4 -3 1 -6 -6 -6 -7 0 -10 -4 -7 -8 3 -5 -4
-23 -15 -41 -11 -18 -17 -36 -14 -42 4 -5 1 -9 -4 -9 -6 0 -11 -6 -11 -12 0
-7 -37 -103 -81 -213 -45 -110 -81 -206 -82 -212 0 -7 -4 -13 -9 -13 -4 0 -7
-3 -6 -7 2 -7 -157 -414 -202 -518 -9 -22 -25 -64 -36 -92 -10 -29 -21 -53
-24 -53 -4 0 -7 -6 -7 -13 0 -13 -28 -89 -59 -162 -7 -17 -27 -66 -44 -110
-17 -44 -35 -89 -40 -100 -5 -11 -46 -112 -90 -225 -45 -113 -85 -214 -90
-225 -5 -11 -21 -51 -35 -90 -15 -38 -32 -76 -39 -84 -6 -8 -9 -16 -8 -18 4
-3 -36 -110 -74 -198 -7 -16 -33 -82 -58 -145 -25 -63 -51 -128 -57 -145 -7
-16 -13 -32 -13 -35 -1 -5 -19 -49 -47 -115 -5 -11 -36 -89 -70 -174 -33 -85
-65 -166 -71 -180 -6 -14 -12 -31 -13 -37 -2 -6 -10 -27 -18 -45 -9 -19 -25
-59 -37 -89 -11 -30 -25 -64 -29 -75 -8 -17 -20 -49 -26 -65 -4 -10 -18 -46
-35 -85 -10 -22 -21 -51 -25 -65 -4 -14 -16 -43 -25 -65 -28 -62 -122 -299
-124 -310 -1 -5 -4 -14 -8 -20 -3 -5 -49 -120 -102 -255 -53 -135 -101 -254
-105 -265 -31 -72 -40 -93 -47 -115 -4 -14 -7 -28 -6 -32 1 -5 -2 -8 -8 -8 -5
0 -10 -4 -10 -9 0 -5 -4 -20 -9 -33 -5 -13 -9 -25 -9 -28 -1 -3 -12 -31 -26
-63 -15 -32 -26 -64 -26 -73 0 -9 -5 -12 -12 -8 -7 4 -10 4 -6 -1 7 -7 -22
-93 -48 -143 -8 -15 -14 -33 -14 -40 0 -7 -4 -20 -10 -30 -17 -30 -89 -212
-84 -212 2 0 -3 -11 -12 -25 -9 -14 -12 -25 -8 -25 5 0 4 -4 -1 -8 -10 -6 -52
-108 -59 -140 -1 -7 -7 -17 -13 -23 -10 -10 -27 20 -177 316 -11 22 -19 43
-18 48 1 4 -2 7 -6 7 -4 0 -21 28 -37 63 -16 34 -35 70 -43 80 -8 9 -12 17 -9
17 4 0 -4 19 -17 43 -13 23 -69 132 -126 242 -56 110 -106 206 -112 213 -6 6
-7 12 -3 12 4 0 3 6 -3 13 -5 6 -72 134 -147 282 -76 149 -146 285 -157 303
-11 17 -16 32 -12 32 4 0 0 8 -8 18 -8 9 -30 49 -50 87 -19 39 -55 112 -81
162 -26 51 -47 96 -46 99 0 4 -3 10 -8 13 -4 3 -54 97 -110 208 l-102 202 43
93 c61 131 134 290 163 358 9 19 30 67 48 105 18 39 47 104 65 145 18 41 56
125 84 185 29 61 68 146 87 190 18 44 37 82 42 83 4 2 7 10 7 17 0 19 32 88
45 97 6 4 6 8 1 8 -5 0 -3 7 4 15 7 8 9 15 4 15 -5 0 -4 4 1 8 6 4 23 34 38
68 15 33 39 87 54 120 14 32 27 61 28 64 3 7 43 96 75 165 16 33 39 85 53 115
40 90 68 152 93 208 13 28 36 78 50 110 14 31 36 80 49 107 46 99 78 170 80
175 4 13 26 61 56 125 18 39 33 72 34 75 1 3 13 30 27 60 14 30 35 78 48 105
12 28 34 75 48 105 14 30 25 58 24 63 -1 4 2 7 6 7 5 0 9 6 9 13 0 6 15 44 34
82 18 39 32 73 31 78 -1 4 2 7 8 7 5 0 10 5 10 12 0 6 11 35 25 65 14 29 37
79 51 111 14 31 37 81 50 110 13 29 24 55 24 57 0 3 -580 5 -1289 5 -1019 0
-1291 -3 -1298 -12 -6 -7 -20 -39 -31 -70 -12 -32 -26 -66 -31 -75 -6 -10 -25
-56 -43 -103 -18 -47 -36 -87 -39 -90 -3 -3 -12 -23 -19 -45 -7 -22 -21 -58
-31 -80 -10 -22 -34 -80 -54 -130 -20 -49 -42 -103 -49 -120 -8 -16 -24 -55
-36 -85 -12 -30 -33 -79 -46 -108 -13 -29 -24 -57 -24 -62 0 -6 -4 -18 -10
-28 -5 -9 -39 -89 -75 -177 -37 -88 -73 -176 -82 -195 -9 -19 -16 -41 -16 -47
0 -7 -4 -13 -9 -13 -4 0 -8 -6 -8 -13 0 -12 -31 -89 -85 -212 -7 -16 -16 -41
-20 -55 -4 -14 -10 -27 -14 -30 -6 -5 -29 -62 -35 -85 -1 -5 -12 -32 -25 -60
-33 -74 -34 -77 -106 -255 -37 -91 -72 -171 -79 -179 -6 -8 -10 -17 -10 -20 1
-3 -3 -17 -8 -31 -6 -14 -11 -31 -12 -38 -1 -7 -8 -18 -14 -24 -7 -7 -12 -22
-12 -35 0 -13 -4 -23 -10 -23 -5 0 -10 -7 -10 -16 0 -8 -5 -25 -12 -37 -7 -12
-13 -26 -14 -32 -1 -5 -9 -27 -18 -47 -9 -21 -16 -39 -15 -40 1 -2 -8 -21 -20
-43 -11 -22 -21 -45 -21 -51 0 -6 -13 -37 -29 -70 -15 -32 -32 -70 -37 -84 -8
-23 -9 -22 -14 15 -3 22 -4 44 -2 49 9 18 8 85 -1 79 -6 -3 -7 -1 -3 5 9 14
10 217 2 231 -4 6 -4 11 1 11 4 0 7 21 5 47 -2 27 -3 55 -3 63 2 60 3 107 1
115 -1 6 -2 12 -1 15 7 17 5 100 -2 100 -5 0 -5 5 -2 10 9 14 9 266 0 279 -3
6 -3 11 2 11 4 0 7 21 5 47 -2 27 -3 55 -3 63 2 60 3 107 1 115 -1 6 -2 12 -1
15 7 17 5 100 -2 100 -5 0 -5 5 -2 10 9 14 9 266 0 279 -3 6 -3 11 2 11 4 0 7
21 5 47 -2 27 -3 55 -3 63 2 60 3 107 1 115 -1 6 -2 12 -1 15 7 17 5 100 -2
100 -5 0 -5 5 -2 10 9 14 9 266 0 279 -3 6 -3 11 2 11 4 0 7 21 5 47 -2 27 -3
55 -3 63 2 60 3 107 1 115 -1 6 -2 12 -1 15 7 17 5 100 -2 100 -5 0 -5 5 -2
10 5 8 7 113 4 243 0 16 -101 17 -1967 17 l-1967 0 -125 -63z m11076 -2576
c22 -69 38 -132 38 -138 -1 -7 2 -13 7 -13 5 0 9 -11 9 -24 0 -14 4 -27 9 -30
5 -3 11 -18 14 -33 7 -40 14 -63 31 -111 8 -23 15 -43 15 -45 0 -1 2 -9 5 -17
8 -23 48 -164 49 -170 0 -3 6 -20 14 -37 7 -18 11 -33 8 -33 -4 0 -3 -6 2 -12
4 -7 8 -15 8 -18 1 -6 51 -165 97 -310 17 -52 37 -116 45 -141 8 -25 16 -55
18 -65 2 -10 4 -20 5 -21 2 -2 3 -6 5 -10 1 -5 4 -15 8 -23 5 -12 21 -66 33
-112 1 -5 3 -10 4 -13 1 -3 4 -9 5 -15 1 -5 4 -12 5 -15 1 -3 3 -8 4 -12 1 -5
9 -33 19 -63 9 -30 16 -57 16 -60 0 -3 5 -18 11 -35 7 -16 20 -56 30 -87 l17
-56 -69 0 c-38 0 -71 -2 -75 -5 -3 -4 -10 -4 -15 -1 -12 8 -178 7 -186 0 -3
-3 -11 -1 -18 5 -8 7 -14 7 -19 -1 -3 -6 -11 -7 -17 -4 -12 8 -174 7 -187 0
-5 -4 -13 -2 -16 4 -5 8 -11 8 -19 1 -7 -6 -16 -8 -19 -5 -7 7 -126 9 -133 2
-3 -3 -21 -2 -40 2 -23 5 -34 4 -34 -3 0 -8 -3 -8 -11 0 -8 8 -20 8 -34 3 -13
-5 -25 -7 -27 -5 -9 10 -88 11 -88 2 0 -7 -4 -7 -11 0 -8 8 -20 8 -34 3 -13
-5 -25 -6 -28 -4 -3 3 -23 5 -46 6 -23 0 -41 3 -41 6 0 4 23 78 51 166 28 87
52 168 53 180 1 11 7 30 13 41 9 19 51 151 58 185 2 8 4 16 5 18 2 1 4 7 5 12
1 6 4 13 5 18 2 4 4 12 5 17 1 6 5 17 8 25 6 18 30 92 33 103 1 4 2 8 4 10 1
1 3 9 5 18 3 16 52 176 101 329 84 263 122 395 118 402 -3 4 0 8 5 8 6 0 11 6
11 14 0 7 12 49 26 92 14 44 26 87 27 97 1 9 4 17 7 17 3 0 6 8 7 18 3 33 21
69 36 69 10 0 27 -40 53 -126z"/>
<path d="M1643 4378 c0 -601 2 -667 16 -670 13 -3 925 -2 956 1 11 1 12 62 1
79 -3 6 -2 13 4 17 6 4 7 11 4 17 -5 8 -9 112 -4 121 1 1 3 12 4 24 2 15 -4
22 -18 25 -12 2 -152 4 -312 3 l-292 0 2 62 c1 38 -3 63 -9 63 -6 0 -6 3 1 8
6 4 10 27 10 52 l-1 45 235 2 c129 0 244 2 255 2 20 1 21 7 20 139 l-1 137
-219 2 c-311 2 -297 1 -292 16 2 6 0 20 -5 30 -5 9 -5 17 0 17 4 0 7 38 6 85
0 47 2 87 6 90 3 2 140 5 303 7 296 3 296 3 306 26 6 12 7 22 1 22 -5 0 -5 12
0 30 5 18 5 32 -1 36 -6 4 -6 11 1 19 8 10 8 15 0 20 -8 5 -8 11 -1 19 6 7 8
16 4 20 -4 3 -6 28 -4 54 l2 47 -489 0 -489 0 0 -667z"/>
<path d="M2900 5043 c0 -5 -12 -9 -27 -9 l-28 1 -1 -215 c0 -118 -2 -219 -4
-225 -1 -5 -1 -12 0 -15 8 -17 5 -148 -3 -143 -6 4 -7 1 -1 -8 11 -18 13 -448
2 -471 -4 -9 -4 -19 0 -22 4 -3 7 -59 7 -126 l-2 -120 185 2 185 3 1 352 c1
193 4 355 9 359 4 4 7 1 7 -7 0 -8 9 -21 20 -29 11 -8 20 -19 20 -25 0 -5 11
-23 25 -40 20 -25 112 -150 173 -234 9 -13 23 -29 30 -36 6 -8 12 -18 12 -23
0 -6 3 -12 8 -14 6 -3 72 -89 112 -148 8 -12 27 -36 42 -54 15 -17 30 -39 34
-48 3 -10 9 -18 14 -18 5 0 12 -9 15 -20 6 -19 15 -20 158 -20 l152 0 0 673 0
672 -77 0 c-43 0 -78 3 -78 8 0 4 -5 5 -12 1 -18 -12 -58 -11 -58 1 0 7 -3 6
-8 -1 -4 -5 -32 -9 -62 -9 -30 1 -57 -2 -60 -6 -3 -5 -5 -67 -4 -139 1 -89 -2
-130 -10 -130 -8 0 -8 -2 0 -8 16 -11 14 -451 -2 -445 -7 2 -15 16 -18 29 -4
14 -10 23 -15 20 -4 -3 -14 7 -22 22 -8 15 -16 29 -19 32 -4 3 -22 27 -41 55
-18 27 -40 56 -46 65 -7 8 -37 49 -67 90 -31 41 -60 80 -66 87 -5 7 -10 17
-10 23 0 5 -3 10 -7 10 -5 0 -19 17 -33 38 -14 20 -33 46 -42 56 -10 11 -18
23 -18 26 0 4 -10 19 -22 33 -13 14 -42 52 -65 85 l-42 59 -86 -1 c-53 -1 -85
2 -85 9 0 6 -3 7 -8 0 -8 -12 -32 -13 -49 -2 -7 5 -13 4 -13 0z"/>
<path d="M4356 5043 c-4 -4 -17 -8 -29 -8 -22 0 -22 -2 -22 -173 0 -94 -4
-172 -8 -172 -5 0 -5 -5 -1 -11 9 -15 9 -143 0 -158 -4 -6 -4 -11 1 -11 4 0 8
-32 8 -70 0 -39 -4 -70 -8 -70 -5 0 -5 -5 -1 -11 9 -15 9 -143 0 -158 -4 -6
-4 -11 1 -11 10 0 9 -172 -1 -188 -4 -7 -4 -12 1 -12 9 0 9 -162 0 -177 -3 -5
-2 -15 3 -23 4 -7 4 -24 -1 -37 -5 -15 -5 -23 2 -23 6 0 8 -9 4 -20 -6 -19 -2
-20 174 -20 181 0 181 0 182 23 0 12 1 142 1 289 l1 266 21 -22 c11 -12 50
-57 86 -101 35 -44 69 -85 75 -91 5 -7 17 -20 25 -31 22 -27 103 -126 115
-140 5 -6 21 -26 35 -44 14 -18 34 -42 45 -53 11 -12 33 -38 48 -59 l28 -37
215 0 c235 0 230 -1 177 55 -10 11 -58 70 -107 130 -91 114 -95 119 -223 276
-43 52 -91 113 -108 134 -16 21 -38 47 -48 57 -18 19 -17 21 9 56 16 20 34 43
41 50 7 7 13 17 13 20 0 4 10 18 23 32 12 14 34 43 50 66 15 22 35 49 45 60
10 10 21 27 25 37 3 9 11 17 17 17 5 0 10 7 10 15 0 7 6 18 13 22 7 4 23 25
37 45 14 21 28 38 33 38 4 0 7 5 7 12 0 6 7 18 16 27 22 23 144 189 144 197 0
3 -7 4 -15 1 -8 -4 -17 -2 -21 4 -3 6 -11 6 -17 1 -9 -6 -114 -7 -182 -2 -5 1
-19 -1 -30 -3 -11 -2 -23 1 -27 7 -6 8 -8 8 -8 0 0 -7 -22 -10 -59 -8 -59 2
-60 1 -87 -37 -15 -21 -31 -39 -35 -39 -5 0 -9 -6 -9 -13 0 -7 -11 -24 -23
-38 -13 -13 -37 -44 -52 -67 -15 -23 -32 -42 -36 -42 -5 0 -8 -3 -7 -7 3 -8
-100 -149 -134 -185 -10 -10 -18 -21 -18 -25 0 -5 -10 -20 -23 -35 -12 -15
-33 -43 -47 -62 -14 -20 -28 -36 -31 -36 -3 0 -6 127 -6 283 0 270 -3 314 -23
302 -5 -3 -11 -1 -15 5 -4 6 -12 7 -18 3 -16 -10 -231 -11 -238 -1 -3 5 -9 5
-13 1z"/>
<path d="M5715 5040 c-1 -3 -2 -305 -2 -672 0 -486 3 -668 11 -669 14 0 904 0
931 0 19 1 20 7 18 138 0 76 -2 143 -2 148 -1 6 -102 10 -283 9 -156 0 -288 1
-295 4 -7 2 -12 29 -12 70 -1 37 -1 74 -2 82 0 8 0 58 0 110 1 52 1 102 1 110
0 13 0 273 0 325 0 11 0 75 1 142 0 67 -2 127 -6 132 -3 6 -2 11 3 11 10 0 3
59 -7 61 -21 4 -353 3 -356 -1z"/>
<path d="M7017 5042 c-3 -4 -48 -7 -101 -7 l-96 1 -1 -25 c-3 -89 -4 -1298 -1
-1308 3 -10 49 -13 186 -13 l182 0 0 675 c0 537 -3 675 -13 671 -7 -3 -15 -1
-19 5 -3 6 -10 6 -17 1 -13 -11 -87 -9 -105 2 -6 3 -13 3 -15 -2z"/>
<path d="M7636 5042 c-2 -4 -48 -7 -100 -6 -53 1 -97 -1 -97 -5 -1 -3 -3 -306
-3 -673 l-2 -668 181 0 180 0 0 291 0 290 30 -33 c16 -19 44 -52 60 -73 17
-21 35 -43 41 -49 6 -6 41 -49 79 -96 37 -47 71 -87 74 -90 5 -4 61 -73 93
-115 5 -5 22 -26 39 -45 16 -19 37 -45 46 -57 15 -23 18 -23 235 -23 249 0
235 -7 156 86 -24 28 -56 68 -73 89 -87 109 -113 140 -132 161 -7 7 -13 15
-13 18 0 3 -8 14 -17 24 -20 21 -62 71 -95 116 -13 16 -31 37 -40 45 -10 9
-18 19 -18 24 0 4 -9 18 -20 30 -12 12 -32 35 -45 52 l-24 29 27 36 c14 19 32
41 39 48 7 7 20 26 30 42 9 17 21 30 25 30 4 0 8 7 8 15 0 8 3 15 8 15 4 0 18
17 32 37 14 21 32 47 42 58 9 11 48 63 86 115 39 52 75 100 80 106 5 6 27 35
48 65 21 30 41 56 45 59 3 3 11 14 17 26 11 20 9 21 -54 20 -36 -1 -68 2 -71
7 -2 4 -10 4 -16 0 -16 -10 -218 -11 -239 -1 -13 7 -37 -20 -123 -134 -58 -79
-111 -150 -118 -158 -7 -9 -25 -33 -42 -55 -16 -22 -33 -44 -37 -50 -5 -5 -38
-50 -74 -100 -36 -49 -69 -91 -73 -93 -4 -1 -7 129 -7 290 l0 293 -70 1 c-39
0 -75 4 -81 7 -7 4 -14 4 -17 -1z"/>
<path d="M9876 5043 c-3 -4 -25 -7 -48 -7 -45 -1 -49 -5 -82 -86 -7 -19 -27
-66 -42 -105 -16 -38 -29 -72 -30 -75 -1 -8 -15 -42 -35 -87 -10 -24 -19 -50
-19 -58 0 -8 -5 -15 -11 -15 -5 0 -8 -4 -5 -8 3 -5 -1 -19 -7 -33 -7 -13 -24
-53 -37 -89 -13 -36 -29 -76 -36 -90 -7 -14 -42 -101 -79 -195 -36 -93 -72
-185 -80 -203 -8 -18 -15 -39 -15 -47 0 -8 -3 -15 -8 -15 -4 0 -16 -27 -26
-60 -11 -33 -23 -60 -28 -60 -4 0 -7 -3 -7 -7 3 -15 -14 -74 -22 -79 -5 -3 -9
-12 -9 -20 0 -12 31 -14 189 -14 199 0 196 -1 206 45 7 28 59 171 66 179 4 5
119 9 255 9 l246 1 14 -40 c8 -21 26 -74 41 -116 l26 -78 193 0 194 0 -16 38
c-8 20 -25 60 -36 87 -11 28 -25 61 -31 75 -6 14 -11 27 -12 30 -3 8 -16 39
-67 165 -28 66 -51 125 -52 130 -1 6 -10 27 -19 49 -9 21 -17 41 -17 44 0 3
-9 24 -19 46 -10 23 -40 95 -66 161 -26 66 -58 147 -72 180 -14 33 -29 69 -33
80 -4 11 -20 49 -35 84 -15 35 -28 68 -29 75 -1 6 -10 26 -19 43 -10 18 -17
35 -17 38 0 3 0 9 0 13 0 5 -18 8 -41 8 -22 -1 -43 2 -46 7 -2 4 -10 4 -16 -1
-14 -10 -127 -9 -143 1 -6 3 -14 3 -18 0z m109 -494 c12 -35 43 -124 68 -198
26 -74 47 -136 47 -137 0 -2 -65 -4 -145 -4 -159 0 -158 0 -129 58 8 18 13 36
9 42 -3 5 -2 10 4 10 5 0 12 15 16 33 4 17 13 46 20 62 11 26 33 87 42 120 13
48 30 84 37 82 6 -2 19 -32 31 -68z"/>
<path d="M10887 5044 c-3 -3 -20 -7 -39 -8 l-33 -3 0 -671 0 -672 180 0 180 0
0 353 c-1 193 1 355 3 360 4 8 112 -128 112 -142 0 -5 4 -11 8 -13 5 -1 28
-30 53 -63 24 -33 47 -61 52 -63 4 -2 7 -10 7 -18 0 -8 3 -14 8 -14 4 0 18
-17 32 -38 14 -20 27 -39 30 -42 7 -7 93 -121 110 -147 8 -12 41 -55 73 -97
l58 -76 148 0 147 0 0 673 c-1 590 -3 672 -16 672 -8 0 -20 4 -27 8 -6 4 -14
4 -17 -1 -5 -9 -208 -8 -223 1 -6 4 -13 3 -17 -1 -4 -4 -20 -7 -34 -7 l-26 -1
-1 -361 c0 -199 -3 -365 -7 -369 -5 -4 -8 -2 -8 4 0 6 -6 17 -13 24 -7 7 -32
40 -55 73 -23 33 -71 101 -107 150 -37 50 -74 100 -83 113 -9 13 -24 32 -32
42 -8 10 -33 44 -55 76 -22 31 -46 62 -52 70 -7 7 -13 15 -13 18 0 3 -6 14
-14 23 -8 10 -36 46 -61 81 -26 34 -51 60 -56 56 -5 -3 -9 0 -9 6 0 6 -5 8
-12 3 -17 -10 -149 -11 -169 -1 -9 4 -19 5 -22 2z"/>
<path d="M12381 5041 c-6 -4 -34 -7 -62 -5 -27 1 -50 -1 -50 -4 -1 -4 -2 -307
-3 -674 l-1 -668 181 0 c165 0 182 2 186 18 2 9 3 137 3 285 -1 147 2 267 5
267 4 0 18 -15 32 -32 15 -18 35 -43 45 -55 10 -11 34 -41 53 -64 19 -24 60
-73 90 -110 84 -102 124 -150 140 -171 8 -11 26 -32 40 -48 14 -16 36 -42 49
-59 l23 -31 220 0 220 0 -27 38 c-16 20 -33 42 -39 47 -6 6 -27 30 -46 55 -19
25 -38 47 -42 48 -4 2 -8 8 -8 13 0 5 -9 20 -21 32 -63 68 -99 114 -99 125 0
7 -4 10 -10 7 -5 -3 -10 1 -10 9 0 9 -9 21 -20 28 -11 7 -20 16 -20 20 0 7
-16 28 -45 62 -6 6 -30 36 -55 66 -25 30 -47 57 -50 60 -3 3 -16 19 -27 35
l-21 31 54 74 c30 41 61 83 69 93 9 9 32 41 52 70 20 28 90 123 155 210 65 87
118 163 118 168 0 5 3 9 8 9 4 0 15 11 24 24 l17 23 -40 -2 c-21 -2 -42 1 -45
6 -3 5 -10 6 -16 3 -17 -11 -151 -12 -170 -2 -10 5 -19 4 -23 -2 -4 -7 -12 -7
-24 0 -10 5 -21 7 -24 4 -3 -3 -24 -7 -46 -8 -23 -1 -42 -4 -44 -7 -2 -2 -24
-31 -48 -64 -24 -33 -46 -62 -49 -65 -3 -3 -24 -30 -45 -60 -22 -30 -45 -62
-52 -70 -7 -8 -62 -82 -124 -165 -61 -82 -115 -151 -118 -153 -4 -1 -7 130 -7
292 1 162 -2 292 -6 290 -4 -2 -10 0 -13 6 -4 7 -12 7 -18 2 -13 -9 -178 -9
-193 1 -6 3 -16 2 -23 -2z"/>
<path d="M13694 5041 c-2 -2 -4 -304 -4 -670 l0 -666 478 1 c262 1 482 2 488
3 12 1 18 280 6 282 -4 1 -142 2 -307 3 l-300 1 -1 116 -1 115 253 0 c163 -1
254 3 255 9 1 6 2 67 3 138 1 105 -2 128 -14 132 -8 2 -118 4 -245 4 -126 -1
-235 0 -242 0 -8 1 -11 37 -11 121 l1 120 166 1 c172 1 431 5 443 8 4 0 6 65
5 143 l-2 143 -483 0 c-266 0 -485 -2 -488 -4z"/>
<path d="M14976 5042 c-3 -5 -46 -8 -96 -7 l-90 3 0 -153 0 -153 195 1 c167 2
195 0 196 -13 4 -97 2 -170 -4 -170 -5 0 -5 -5 -2 -11 10 -15 12 -69 3 -69 -4
0 -5 -7 -1 -16 9 -24 9 -224 0 -224 -5 0 -5 -5 -2 -11 10 -15 12 -69 3 -69 -4
0 -5 -7 -1 -16 9 -24 9 -224 0 -224 -5 0 -5 -5 -2 -11 11 -16 12 -69 2 -69 -4
0 -5 -5 -1 -12 4 -6 7 -38 6 -70 l-1 -58 185 0 184 0 0 520 0 520 53 1 c28 0
116 0 195 0 l142 0 1 32 c1 38 1 260 0 267 -1 3 -35 5 -77 5 -41 -1 -78 3 -80
7 -3 5 -10 5 -16 2 -19 -12 -68 -12 -68 0 0 7 -3 8 -8 0 -8 -11 -200 -12 -219
-1 -6 4 -14 4 -17 -1 -4 -7 -141 -9 -156 -2 -3 1 -9 1 -15 0 -33 -8 -65 -6
-65 4 0 7 -3 8 -8 0 -8 -11 -200 -12 -219 -1 -6 4 -14 3 -17 -1z"/>
<path d="M16516 5043 c-4 -4 -34 -8 -66 -9 -78 -1 -82 -2 -75 -13 3 -5 1 -12
-5 -16 -5 -3 -10 -15 -10 -26 0 -10 -5 -19 -12 -19 -6 0 -9 -3 -6 -6 4 -3 -11
-48 -32 -99 -21 -51 -36 -96 -32 -99 3 -3 0 -6 -6 -6 -7 0 -12 -5 -12 -11 0
-10 -152 -396 -171 -434 -6 -12 -11 -27 -13 -35 -2 -8 -9 -28 -16 -45 -7 -16
-14 -34 -16 -40 -6 -22 -52 -126 -58 -132 -3 -3 -6 -13 -6 -22 0 -9 -6 -27
-13 -41 -7 -14 -21 -47 -31 -75 -10 -27 -25 -63 -32 -80 -17 -40 -54 -135 -54
-140 0 -3 85 -5 189 -5 l189 0 16 40 c9 22 16 47 16 55 0 8 4 15 8 15 4 0 8 9
9 20 1 11 9 34 17 51 9 18 13 35 10 40 -3 5 -2 9 3 10 11 1 450 1 484 0 23 -1
29 -9 48 -68 12 -38 25 -75 28 -83 4 -8 7 -18 7 -22 1 -3 4 -10 9 -14 4 -4 7
-16 7 -26 0 -17 13 -18 195 -18 l195 0 -22 53 c-11 28 -28 72 -37 97 -9 25
-19 47 -23 48 -5 2 -8 11 -8 21 0 9 -4 21 -8 26 -5 6 -16 30 -25 55 -9 25 -22
59 -28 75 -7 17 -13 32 -14 35 -1 3 -7 19 -15 35 -32 73 -40 93 -40 100 0 4
-7 21 -15 38 -8 18 -39 93 -69 167 -133 333 -208 517 -221 547 -8 17 -15 35
-15 40 0 5 -45 9 -102 8 -57 0 -106 3 -109 7 -3 5 -9 5 -13 1z m74 -501 c13
-42 23 -80 22 -84 -1 -5 3 -8 8 -8 6 0 10 -9 10 -19 0 -11 9 -40 20 -65 10
-25 17 -46 13 -46 -3 0 0 -7 7 -15 7 -8 9 -15 5 -15 -4 0 -3 -6 2 -12 6 -7 13
-25 17 -40 l6 -28 -145 0 c-80 0 -145 2 -145 4 0 6 70 211 87 256 4 8 7 18 8
23 2 4 3 8 4 10 2 1 4 11 6 22 6 32 34 95 43 95 4 0 18 -35 32 -78z"/>
</g>
</svg>
