<svg xmlns="http://www.w3.org/2000/svg" viewBox="0 0 215.7 121.16"><defs><style>.cls-1{fill:#606060;}.cls-2{fill:#0082ff;}</style></defs><title>1ka_eng</title><g id="Layer_2" data-name="Layer 2"><g id="Layer_2-2" data-name="Layer 2"><path class="cls-1" d="M176.29,0H149.21L119.33,75,103.57,44.1l20-44.1H91.17L75.87,36.9V0H48V88.16H75.87V52.39L92.8,88.16h50.87l4-13h30l4.16,13h29.6ZM155.51,54.41l7.05-23h.38l7.05,23Z"/><path class="cls-2" d="M21.1,35.14,0,43.91V13.55L26.8,0H48V88.16H21.1v-53Z"/><path class="cls-2" d="M20.47,114v0a7.22,7.22,0,0,1,7.44-7.17A7.16,7.16,0,0,1,35.32,114v0a7.22,7.22,0,0,1-7.45,7.17A7.15,7.15,0,0,1,20.47,114Zm11,0v0a3.58,3.58,0,0,0-3.55-3.72A3.51,3.51,0,0,0,24.39,114v0a3.58,3.58,0,0,0,3.52,3.72A3.52,3.52,0,0,0,31.42,114Z"/><path class="cls-2" d="M37.31,107.1h3.57l5.67,7.28V107.1h3.78v13.78H47l-5.89-7.56v7.56H37.31Z"/><path class="cls-2" d="M52.78,107.1H63.86v3.25h-7.3v2.08h6.61v3H56.56v2.18H64v3.25H52.78Z"/><path class="cls-1" d="M65.34,114v0a7.09,7.09,0,0,1,7.27-7.17,6.75,6.75,0,0,1,5.85,2.88l-2.88,2.22a3.7,3.7,0,0,0-3-1.61A3.41,3.41,0,0,0,69.28,114v0a3.41,3.41,0,0,0,3.29,3.68A3.77,3.77,0,0,0,75.68,116l2.88,2a7.26,7.26,0,0,1-13.22-4Z"/><path class="cls-1" d="M80.2,107.1H84v10.43h6.67v3.35H80.2Z"/><path class="cls-1" d="M92.41,107.1h3.84v13.78H92.41Z"/><path class="cls-1" d="M98.3,114v0a7.08,7.08,0,0,1,7.27-7.17,6.73,6.73,0,0,1,5.84,2.88l-2.87,2.22a3.7,3.7,0,0,0-3-1.61,3.41,3.41,0,0,0-3.29,3.64v0a3.41,3.41,0,0,0,3.29,3.68,3.78,3.78,0,0,0,3.11-1.67l2.87,2a7.26,7.26,0,0,1-13.21-4Z"/><path class="cls-1" d="M113.15,107.1H117v5.59l4.75-5.59h4.53L121,113l5.39,7.85h-4.58l-3.47-5.12-1.4,1.56v3.56h-3.82Z"/><path class="cls-1" d="M132,118.83l2.12-2.54a7.08,7.08,0,0,0,4.47,1.66c1,0,1.58-.36,1.58-1v0c0-.57-.46-.88-2.33-1.32-2.93-.66-5.19-1.49-5.19-4.33v0c0-2.56,2-4.41,5.33-4.41a8.67,8.67,0,0,1,5.67,1.83l-1.91,2.7a7,7,0,0,0-3.86-1.36c-.92,0-1.38.4-1.38.89v0c0,.63.48.9,2.39,1.34C142,113,144,114,144,116.59v0c0,2.81-2.23,4.49-5.58,4.49A9.59,9.59,0,0,1,132,118.83Z"/><path class="cls-1" d="M145.66,114.84V107.1h3.87v7.66c0,2,1,2.93,2.54,2.93s2.54-.9,2.54-2.83V107.1h3.88v7.64c0,4.45-2.54,6.4-6.46,6.4S145.66,119.15,145.66,114.84Z"/><path class="cls-1" d="M160.77,107.1h6.51a6,6,0,0,1,4.49,1.49A4.28,4.28,0,0,1,173,111.8v0a4.37,4.37,0,0,1-2.83,4.24l3.28,4.8H169l-2.77-4.17h-1.68v4.17h-3.81Zm6.33,6.61c1.3,0,2.05-.63,2.05-1.63v0c0-1.08-.79-1.63-2.06-1.63h-2.51v3.3Z"/><path class="cls-1" d="M173.43,107.1h4.28l3.13,8.72L184,107.1h4.19L182.57,121H179Z"/><path class="cls-1" d="M189.51,107.1h11.08v3.25h-7.3v2.08h6.61v3h-6.61v2.18h7.4v3.25H189.51Z"/><path class="cls-1" d="M206.62,115.72l-5.23-8.62h4.35l2.83,5,2.86-5h4.27l-5.24,8.56v5.22h-3.84Z"/></g></g></svg>