<svg xmlns="http://www.w3.org/2000/svg" viewBox="0 0 215.69 123.38"><defs><style>.cls-1{fill:#0082ff;}.cls-2{fill:#606060;}</style></defs><title>1ka slo</title><g id="Layer_2" data-name="Layer 2"><g id="Layer_2-2" data-name="Layer 2"><path class="cls-1" d="M25,110.21v3h6.44v3.54H25v3h7.67v3.62H20.47V106.6H32.69v3.62H25Z"/><path class="cls-1" d="M50.46,106.6v16.77H46.74L40,114.29v9.08H35.44V106.6h3.69l6.78,9.27V106.6Z"/><path class="cls-2" d="M64.16,123.37l-6-7.28v7.28H53.62V106.6h4.55v7.5l5.63-7.5h5.34L62.89,115l6.8,8.38H64.16Z"/><path class="cls-2" d="M83.34,119.65v3.71h-12V106.6h4.55v13.06h7.45Z"/><path class="cls-2" d="M85.1,106.6h4.55v16.77H85.1Z"/><path class="cls-2" d="M103.32,123.37l-6-7.28v7.28H92.78V106.6h4.55v7.5l5.63-7.5h5.34L102,115l6.8,8.38h-5.48Z"/><path class="cls-2" d="M122.1,106.6h4.38l6.8,16.77h-4.84l-1-3h-6.28l-1,3h-4.84Zm4,10.3-1.75-5.15h-.07l-1.75,5.15Z"/><path class="cls-2" d="M150,106.6v16.77h-3.71l-6.76-9.08v9.08H135V106.6h3.69l6.78,9.27V106.6Z"/><path class="cls-2" d="M163.69,123.37l-6-7.28v7.28h-4.55V106.6h4.55v7.5l5.63-7.5h5.34l-6.24,8.4,6.8,8.38h-5.53Z"/><path class="cls-2" d="M175.42,110.21v3h6.44v3.54h-6.44v3h7.67v3.62H170.87V106.6h12.22v3.62h-7.67Z"/><path class="cls-2" d="M199,110.36h-4.89v13h-4.55v-13h-4.91V106.6H199Z"/><path class="cls-2" d="M204.51,106.6h4.38l6.8,16.77h-4.84l-1-3h-6.28l-1,3h-4.84Zm4,10.3-1.75-5.15h-.07l-1.75,5.15Z"/><path class="cls-2" d="M176.29,0H149.21L119.33,75,103.57,44.1l20-44.1H91.17L75.87,36.9V0H48V88.16H75.87V52.39L92.8,88.16h50.87l4-13h30l4.16,13h29.6ZM155.51,54.41l7.05-23h.38l7.05,23Z"/><path class="cls-1" d="M21.1,35.14,0,43.91V13.55L26.8,0H48V88.16H21.1v-53Z"/></g></g></svg>